<mxfile host="drawio-plugin" modified="2022-09-08T07:38:12.051Z" agent="5.0 (Windows NT 6.2; Win64; x64) AppleWebKit/537.36 (KHTML, like Gecko) Chrome/98.0.4758.102 Safari/537.36" etag="PFoxGxegSQrpm3HgRVEt" version="15.5.4" type="embed"><diagram id="3T-pmTAPc3kEFicoo7U0" name="Page-1"><mxGraphModel dx="1441" dy="701" grid="0" gridSize="10" guides="1" tooltips="1" connect="1" arrows="1" fold="1" page="0" pageScale="1" pageWidth="850" pageHeight="1100" math="0" shadow="0"><root><mxCell id="0"/><mxCell id="1" parent="0"/><mxCell id="6" style="edgeStyle=orthogonalEdgeStyle;rounded=0;orthogonalLoop=1;jettySize=auto;html=1;exitX=0.5;exitY=1;exitDx=0;exitDy=0;entryX=0.5;entryY=0;entryDx=0;entryDy=0;fontSize=16;" parent="1" source="2" target="3" edge="1"><mxGeometry relative="1" as="geometry"/></mxCell><mxCell id="7" style="edgeStyle=orthogonalEdgeStyle;rounded=0;orthogonalLoop=1;jettySize=auto;html=1;exitX=0.5;exitY=1;exitDx=0;exitDy=0;fontSize=16;" parent="1" source="2" target="5" edge="1"><mxGeometry relative="1" as="geometry"/></mxCell><mxCell id="2" value="&lt;font style=&quot;font-size: 16px&quot;&gt;ProxyFactory&lt;/font&gt;" style="rounded=0;whiteSpace=wrap;html=1;fillColor=#d5e8d4;strokeColor=#82b366;" parent="1" vertex="1"><mxGeometry x="245" y="69" width="120" height="60" as="geometry"/></mxCell><mxCell id="10" style="edgeStyle=orthogonalEdgeStyle;rounded=0;orthogonalLoop=1;jettySize=auto;html=1;exitX=0.5;exitY=1;exitDx=0;exitDy=0;entryX=0;entryY=0.5;entryDx=0;entryDy=0;fontSize=15;dashed=1;" parent="1" source="3" target="8" edge="1"><mxGeometry relative="1" as="geometry"/></mxCell><mxCell id="15" value="implements" style="edgeLabel;html=1;align=center;verticalAlign=middle;resizable=0;points=[];fontSize=15;" parent="10" vertex="1" connectable="0"><mxGeometry x="-0.4062" relative="1" as="geometry"><mxPoint as="offset"/></mxGeometry></mxCell><mxCell id="3" value="&lt;span style=&quot;font-size: 16px&quot;&gt;JdkDynamicAopProxy&lt;/span&gt;" style="rounded=0;whiteSpace=wrap;html=1;fillColor=#d5e8d4;strokeColor=#82b366;" parent="1" vertex="1"><mxGeometry x="100" y="194" width="179" height="60" as="geometry"/></mxCell><mxCell id="11" style="edgeStyle=orthogonalEdgeStyle;rounded=0;orthogonalLoop=1;jettySize=auto;html=1;exitX=0.5;exitY=1;exitDx=0;exitDy=0;entryX=1;entryY=0.5;entryDx=0;entryDy=0;fontSize=15;dashed=1;" parent="1" source="5" target="8" edge="1"><mxGeometry relative="1" as="geometry"/></mxCell><mxCell id="14" value="implements" style="edgeLabel;html=1;align=center;verticalAlign=middle;resizable=0;points=[];fontSize=15;" parent="11" vertex="1" connectable="0"><mxGeometry x="-0.405" relative="1" as="geometry"><mxPoint as="offset"/></mxGeometry></mxCell><mxCell id="32" value="&lt;font style=&quot;font-size: 13px&quot;&gt;这是Cglib和Jdk的区别&lt;/font&gt;" style="edgeStyle=orthogonalEdgeStyle;rounded=0;orthogonalLoop=1;jettySize=auto;html=1;exitX=0.5;exitY=1;exitDx=0;exitDy=0;dashed=1;" edge="1" parent="1" source="5" target="31"><mxGeometry x="0.7259" relative="1" as="geometry"><Array as="points"><mxPoint x="414" y="349"/><mxPoint x="533" y="349"/></Array><mxPoint y="1" as="offset"/></mxGeometry></mxCell><mxCell id="5" value="&lt;span style=&quot;font-size: 16px&quot;&gt;CglibAopProxy&lt;/span&gt;" style="rounded=0;whiteSpace=wrap;html=1;fillColor=#d5e8d4;strokeColor=#82b366;" parent="1" vertex="1"><mxGeometry x="324" y="194" width="179" height="60" as="geometry"/></mxCell><mxCell id="13" value="执行过滤器链" style="edgeStyle=orthogonalEdgeStyle;rounded=0;orthogonalLoop=1;jettySize=auto;html=1;exitX=0.5;exitY=1;exitDx=0;exitDy=0;fontSize=15;" parent="1" source="8" target="12" edge="1"><mxGeometry relative="1" as="geometry"/></mxCell><mxCell id="8" value="&lt;font style=&quot;font-size: 15px&quot;&gt;InvocationHandler&lt;br&gt;#invoke()&lt;br&gt;&lt;/font&gt;" style="rounded=0;whiteSpace=wrap;html=1;fillColor=#dae8fc;strokeColor=#6c8ebf;" parent="1" vertex="1"><mxGeometry x="221" y="324" width="168" height="53" as="geometry"/></mxCell><mxCell id="23" value="" style="edgeStyle=orthogonalEdgeStyle;rounded=0;orthogonalLoop=1;jettySize=auto;html=1;fontSize=15;" parent="1" source="12" target="22" edge="1"><mxGeometry relative="1" as="geometry"/></mxCell><mxCell id="12" value="&lt;font style=&quot;font-size: 15px&quot;&gt;MethodInterceptor&lt;br&gt;#invoke()&lt;br&gt;&lt;/font&gt;" style="rounded=0;whiteSpace=wrap;html=1;fillColor=#dae8fc;strokeColor=#6c8ebf;" parent="1" vertex="1"><mxGeometry x="221" y="441" width="168" height="53" as="geometry"/></mxCell><mxCell id="17" value="implements" style="edgeStyle=orthogonalEdgeStyle;rounded=0;orthogonalLoop=1;jettySize=auto;html=1;exitX=1;exitY=0.5;exitDx=0;exitDy=0;fontSize=15;dashed=1;" parent="1" source="16" target="12" edge="1"><mxGeometry relative="1" as="geometry"/></mxCell><mxCell id="26" style="edgeStyle=orthogonalEdgeStyle;rounded=0;orthogonalLoop=1;jettySize=auto;html=1;exitX=0.5;exitY=1;exitDx=0;exitDy=0;fontSize=15;" parent="1" source="16" target="20" edge="1"><mxGeometry relative="1" as="geometry"/></mxCell><mxCell id="16" value="自定义过滤器&lt;br&gt;#invoke()" style="rounded=0;whiteSpace=wrap;html=1;fontSize=15;fillColor=#fff2cc;strokeColor=#d6b656;" parent="1" vertex="1"><mxGeometry x="-37" y="437.5" width="120" height="60" as="geometry"/></mxCell><mxCell id="20" value="invocation.proceed()" style="rounded=0;whiteSpace=wrap;html=1;fontSize=15;fillColor=#f8cecc;strokeColor=#b85450;" parent="1" vertex="1"><mxGeometry x="-61.5" y="547" width="169" height="34" as="geometry"/></mxCell><mxCell id="25" value="" style="edgeStyle=orthogonalEdgeStyle;rounded=0;orthogonalLoop=1;jettySize=auto;html=1;fontSize=15;" parent="1" source="22" target="24" edge="1"><mxGeometry relative="1" as="geometry"/></mxCell><mxCell id="22" value="&lt;font style=&quot;font-size: 15px&quot;&gt;执行过滤器链&lt;br&gt;methodInterceptor.invoke()&lt;br&gt;&lt;/font&gt;" style="rounded=0;whiteSpace=wrap;html=1;fillColor=#dae8fc;strokeColor=#6c8ebf;" parent="1" vertex="1"><mxGeometry x="194" y="536.5" width="222" height="55" as="geometry"/></mxCell><mxCell id="24" value="&lt;font style=&quot;font-size: 15px&quot;&gt;method.invoke()&lt;br&gt;&lt;/font&gt;" style="rounded=0;whiteSpace=wrap;html=1;fillColor=#f8cecc;strokeColor=#b85450;" parent="1" vertex="1"><mxGeometry x="194" y="634" width="222" height="38" as="geometry"/></mxCell><mxCell id="29" style="edgeStyle=orthogonalEdgeStyle;rounded=0;orthogonalLoop=1;jettySize=auto;html=1;exitX=1;exitY=0.5;exitDx=0;exitDy=0;entryX=0.5;entryY=0;entryDx=0;entryDy=0;fontSize=15;dashed=1;" parent="1" source="27" target="20" edge="1"><mxGeometry relative="1" as="geometry"/></mxCell><mxCell id="27" value="Before" style="rounded=1;whiteSpace=wrap;html=1;fontSize=15;dashed=1;fillColor=#f5f5f5;fontColor=#333333;strokeColor=#666666;" parent="1" vertex="1"><mxGeometry x="-261" y="504" width="101" height="43" as="geometry"/></mxCell><mxCell id="30" style="edgeStyle=orthogonalEdgeStyle;rounded=0;orthogonalLoop=1;jettySize=auto;html=1;exitX=1;exitY=0.5;exitDx=0;exitDy=0;entryX=0.5;entryY=1;entryDx=0;entryDy=0;dashed=1;fontSize=15;" parent="1" source="28" target="20" edge="1"><mxGeometry relative="1" as="geometry"/></mxCell><mxCell id="28" value="After" style="rounded=1;whiteSpace=wrap;html=1;fontSize=15;dashed=1;fillColor=#f5f5f5;fontColor=#333333;strokeColor=#666666;" parent="1" vertex="1"><mxGeometry x="-261" y="581" width="101" height="43" as="geometry"/></mxCell><mxCell id="31" value="&lt;font style=&quot;font-size: 15px&quot;&gt;MethodInterceptor&lt;br&gt;#intercept()&lt;br&gt;&lt;/font&gt;" style="rounded=0;whiteSpace=wrap;html=1;fillColor=#dae8fc;strokeColor=#6c8ebf;" vertex="1" parent="1"><mxGeometry x="449" y="441" width="168" height="53" as="geometry"/></mxCell></root></mxGraphModel></diagram></mxfile>